<?xml version="1.0" standalone="no"?>
<!DOCTYPE svg PUBLIC "-//W3C//DTD SVG 20010904//EN"
 "http://www.w3.org/TR/2001/REC-SVG-20010904/DTD/svg10.dtd">
<svg version="1.0" xmlns="http://www.w3.org/2000/svg"
 width="512.000000pt" height="512.000000pt" viewBox="0 0 512.000000 512.000000"
 preserveAspectRatio="xMidYMid meet">

<g transform="translate(0.000000,512.000000) scale(0.100000,-0.100000)"
fill="#000000" stroke="none">
<path d="M2505 4957 c-18 -18 -38 -51 -45 -72 -9 -28 -14 -172 -17 -472 l-5
-433 -557 0 c-619 0 -628 -1 -753 -67 -124 -65 -222 -186 -262 -322 -14 -49
-16 -209 -16 -1540 l0 -1486 24 -66 c45 -128 135 -234 252 -296 122 -65 96
-63 1025 -63 912 0 925 1 1114 55 120 35 310 128 418 205 48 35 131 109 185
165 188 195 301 406 364 683 22 96 22 105 25 1167 4 1183 6 1146 -59 1276 -46
91 -145 187 -238 232 -41 19 -102 40 -134 46 -38 7 -263 11 -618 11 l-558 0
-2 90 c-1 50 -2 102 -2 116 -1 33 -3 32 169 94 264 97 413 184 445 260 18 44
7 113 -25 156 -64 84 -258 204 -424 261 -80 27 -110 33 -184 33 -87 0 -90 -1
-122 -33z m265 -202 c94 -37 201 -94 245 -129 l27 -22 -25 -16 c-60 -40 -361
-157 -372 -146 -4 4 -4 83 0 177 6 142 10 171 23 171 8 0 54 -16 102 -35z
m1092 -1023 c60 -30 120 -90 150 -150 l23 -47 3 -1037 c2 -1032 2 -1037 -19
-1093 -27 -73 -100 -146 -171 -173 -29 -11 -90 -23 -136 -26 -155 -14 -263
-61 -360 -157 -62 -60 -121 -161 -142 -239 -7 -25 -16 -86 -20 -135 -13 -148
-71 -238 -189 -294 l-56 -26 -820 0 -820 0 -55 26 c-66 31 -130 93 -161 157
l-24 47 0 1470 0 1470 21 46 c32 69 91 128 159 161 l60 28 1255 -2 1255 -3 47
-23z m68 -2707 c0 -13 -46 -95 -90 -160 -97 -144 -245 -280 -393 -360 -37 -21
-70 -35 -72 -33 -2 2 2 25 10 51 8 26 17 86 21 134 8 111 40 187 101 244 63
58 118 79 233 90 53 5 115 16 136 23 44 16 54 18 54 11z"/>
<path d="M1751 2896 c-70 -39 -67 -148 6 -185 15 -8 247 -11 802 -11 l780 0
26 23 c50 43 49 126 -1 166 -26 21 -34 21 -808 21 -629 -1 -786 -3 -805 -14z"/>
<path d="M1751 2256 c-70 -39 -67 -148 6 -185 15 -8 247 -11 802 -11 l780 0
26 23 c50 43 49 126 -1 166 -26 21 -34 21 -808 21 -629 -1 -786 -3 -805 -14z"/>
<path d="M1751 1616 c-70 -39 -67 -148 6 -185 15 -8 190 -11 587 -11 l566 0
32 29 c28 25 33 36 33 76 0 40 -5 51 -33 76 l-32 29 -568 0 c-451 -1 -572 -3
-591 -14z"/>
</g>
</svg>
