<?xml version="1.0" standalone="no"?>
<!DOCTYPE svg PUBLIC "-//W3C//DTD SVG 20010904//EN"
 "http://www.w3.org/TR/2001/REC-SVG-20010904/DTD/svg10.dtd">
<svg version="1.0" xmlns="http://www.w3.org/2000/svg"
 width="512.000000pt" height="512.000000pt" viewBox="0 0 512.000000 512.000000"
 preserveAspectRatio="xMidYMid meet">

<g transform="translate(0.000000,512.000000) scale(0.100000,-0.100000)"
fill="#000000" stroke="none">
<path d="M2555 5007 c-43 -20 -75 -59 -87 -104 -6 -22 -12 -223 -15 -470 l-5
-432 -587 -3 -586 -3 -69 -27 c-170 -66 -292 -201 -338 -374 -19 -72 -19
-2956 0 -3028 46 -174 168 -308 342 -376 l65 -25 885 0 c815 0 892 1 975 18
505 102 899 447 1060 930 72 216 70 170 70 1362 0 1160 2 1109 -56 1230 -59
120 -161 211 -295 263 l-69 27 -595 5 -595 5 0 118 0 119 145 52 c269 97 411
176 456 252 56 95 12 180 -151 289 -199 133 -459 214 -550 172z m256 -242 c78
-33 223 -117 235 -136 9 -16 -340 -169 -386 -169 -11 0 -13 195 -3 289 l6 63
34 -7 c19 -3 70 -21 114 -40z m1051 -1007 c75 -35 141 -104 168 -174 20 -55
20 -64 18 -1092 l-3 -1037 -27 -50 c-60 -114 -139 -160 -307 -179 -73 -9 -139
-23 -172 -37 -206 -86 -316 -242 -338 -480 -12 -125 -38 -185 -107 -248 -99
-91 -45 -86 -969 -86 l-810 0 -57 27 c-75 35 -141 104 -167 174 -21 54 -21 65
-21 1504 0 1398 1 1452 19 1500 37 98 116 168 220 196 36 10 321 12 1271 11
l1225 -2 57 -27z m74 -2724 c-16 -42 -92 -158 -151 -231 -96 -120 -235 -232
-374 -303 -40 -20 -43 -20 -36 -3 19 48 27 86 35 178 21 219 124 322 341 339
42 4 96 13 120 20 60 19 72 19 65 0z"/>
<path d="M1739 2901 c-47 -48 -37 -130 21 -164 26 -15 98 -17 800 -17 702 0
774 2 800 17 58 34 68 116 21 164 l-29 29 -792 0 -792 0 -29 -29z"/>
<path d="M1739 2261 c-47 -48 -37 -130 21 -164 26 -15 98 -17 800 -17 702 0
774 2 800 17 58 34 68 116 21 164 l-29 29 -792 0 -792 0 -29 -29z"/>
<path d="M1739 1621 c-47 -48 -37 -130 21 -164 25 -15 83 -17 585 -17 619 0
603 -2 631 67 19 43 5 93 -33 123 -25 20 -39 20 -600 20 l-575 0 -29 -29z"/>
</g>
</svg>
